<svg xmlns="http://www.w3.org/2000/svg" width="500" height="500" viewBox="0 0 500 500" version="1.1"><path d="M 392.453 207.137 C 379.279 214.323, 366.828 221.332, 364.785 222.713 C 357.742 227.473, 355.319 236.711, 358.594 246.322 C 360.324 251.398, 360.632 251.581, 364.493 249.821 C 366.672 248.828, 366.981 248.191, 366.452 245.781 C 366.044 243.924, 366.384 242.062, 367.421 240.480 C 369.298 237.616, 374.901 234.462, 375.975 235.665 C 377.645 237.537, 388 267.057, 388 269.947 C 388 273.911, 385.871 278.970, 383.203 281.346 C 381.471 282.889, 381.310 283.587, 382.226 285.596 C 383.621 288.658, 384.172 288.620, 390.445 285.032 C 403.535 277.542, 403.593 272.780, 390.910 246.941 C 386.531 238.019, 383.072 230.614, 383.224 230.486 C 383.376 230.359, 387.550 227.970, 392.500 225.178 C 400.346 220.754, 401.592 220.321, 402.214 221.802 C 402.606 222.736, 405.252 229.468, 408.094 236.762 C 410.935 244.056, 414.664 252.381, 416.380 255.262 C 421.912 264.550, 428.813 265.970, 438.078 259.727 C 442.611 256.671, 443.812 253.168, 441.522 249.674 L 439.777 247.010 436.812 249.505 C 430.446 254.862, 427.262 252.125, 417.587 232.977 C 413.414 224.720, 410.008 217.409, 410.017 216.732 C 410.026 216.054, 413.202 213.790, 417.075 211.700 L 424.116 207.899 420.411 201.200 C 418.373 197.515, 416.639 194.404, 416.556 194.286 C 416.473 194.169, 405.627 199.952, 392.453 207.137 M 105 247.948 L 105 278 110.464 278 L 115.928 278 116.214 268.320 L 116.500 258.639 124.282 268.320 L 132.064 278 138.706 278 L 145.349 278 143.356 275.750 C 125.170 255.217, 125.697 255.962, 127.731 253.648 C 128.769 252.467, 132.451 248.350, 135.913 244.500 L 142.208 237.500 136.354 237.179 L 130.500 236.859 123.295 244.679 L 116.090 252.500 115.795 235.500 L 115.500 218.500 110.250 218.198 L 105 217.895 105 247.948 M 154.228 219.208 C 151.598 220.501, 150.256 224.589, 151.701 226.905 C 154.163 230.851, 160.911 231.310, 163.214 227.687 C 166.558 222.428, 160.091 216.326, 154.228 219.208 M 281.104 219.265 C 274.080 222.887, 279.018 232.845, 286.439 230.023 C 288.820 229.118, 291 226.248, 291 224.020 C 291 222.476, 286.372 217.997, 284.795 218.015 C 284.083 218.023, 282.422 218.585, 281.104 219.265 M 66.500 220.222 C 59.091 222.848, 55 228.374, 55 235.753 C 55 243.546, 61.498 249.070, 76.839 254.318 C 81.034 255.754, 82.430 256.792, 83.462 259.248 C 85.991 265.262, 82.119 270, 74.675 270 C 70.509 270, 67.150 267.604, 65.381 263.369 C 64.042 260.166, 63.721 260, 58.855 260 L 53.737 260 54.295 264.163 C 55.367 272.153, 62.533 277.789, 72.793 278.710 C 87.128 279.997, 97.324 271.315, 95.530 259.349 C 94.427 251.994, 89.325 247.839, 76.062 243.495 C 66.487 240.359, 63.173 234.369, 68.635 230.073 C 72.293 227.195, 77.452 227.361, 80.545 230.455 C 81.895 231.805, 83 233.605, 83 234.455 C 83 235.666, 84.219 236, 88.631 236 L 94.262 236 93.707 232.581 C 92.871 227.429, 90.376 224.366, 84.720 221.548 C 79.197 218.795, 72 218.272, 66.500 220.222 M 228 248.928 L 228 278 233.500 278 L 239 278 239 267 L 239 256 243.750 255.994 C 251.247 255.985, 260.261 254.194, 262.995 252.171 C 264.373 251.151, 266.551 248.782, 267.837 246.908 C 269.824 244.009, 270.120 242.527, 269.817 236.978 C 269.397 229.294, 267.018 225.230, 261.270 222.373 C 258.214 220.855, 254.706 220.439, 242.750 220.178 L 228 219.856 228 248.928 M 239 238.106 L 239 247.212 246.979 246.849 C 256.786 246.404, 259.273 244.594, 259.273 237.902 C 259.273 234.506, 258.722 233.157, 256.581 231.316 C 254.288 229.343, 252.785 229, 246.444 229 L 239 229 239 238.106 M 191.500 237.386 C 189.849 238.105, 187.882 239.437, 187.127 240.347 C 185.168 242.707, 184 242.391, 184 239.500 C 184 237.167, 183.667 237, 179 237 L 174 237 174 266.500 L 174 296 179.500 296 L 185 296 185 284.326 L 185 272.651 187.250 274.759 C 197.149 284.032, 214.589 277.219, 218.067 262.721 C 222.003 246.313, 206.010 231.062, 191.500 237.386 M 311.491 237.865 C 295.695 245.041, 294.888 268.782, 310.182 276.403 C 320.764 281.676, 332.543 278.496, 337.930 268.911 L 340.128 265 334.958 265 C 330.903 265, 329.148 265.539, 326.818 267.500 C 322.513 271.122, 316.794 270.948, 312.923 267.077 C 311.315 265.469, 310 263.219, 310 262.077 C 310 260.064, 310.475 260, 325.500 260 L 341 260 340.994 256.750 C 340.974 244.692, 332.414 236.044, 320.500 236.044 C 317.750 236.044, 313.696 236.863, 311.491 237.865 M 152 257.500 L 152 278 157.500 278 L 163 278 163 257.500 L 163 237 157.500 237 L 152 237 152 257.500 M 279 257.500 L 279 278 284 278 L 289 278 289 257.500 L 289 237 284 237 L 279 237 279 257.500 M 191.378 246.389 C 186.842 248.433, 185 251.641, 185 257.500 C 185 263.497, 186.883 266.635, 191.683 268.641 C 196.286 270.564, 201.129 269.519, 204.652 265.841 C 207.066 263.322, 207.500 262.044, 207.500 257.454 C 207.500 252.751, 207.099 251.637, 204.450 248.989 C 200.843 245.382, 195.828 244.385, 191.378 246.389 M 312.923 247.923 C 311.315 249.531, 310 251.331, 310 251.923 C 310 252.621, 313.524 253, 320 253 C 331.100 253, 332.248 252.157, 327.545 247.455 C 323.846 243.755, 316.868 243.979, 312.923 247.923" stroke="none" fill="#2866ec" fill-rule="evenodd"/><path d="M 0 250.002 L 0 500.004 250.250 499.752 L 500.500 499.500 500.752 249.750 L 501.004 0 250.502 0 L 0 0 0 250.002 M 0.492 250.500 C 0.492 388, 0.608 444.101, 0.750 375.170 C 0.892 306.238, 0.892 193.738, 0.750 125.170 C 0.608 56.601, 0.492 113, 0.492 250.500 M 392.453 207.137 C 379.279 214.323, 366.828 221.332, 364.785 222.713 C 357.742 227.473, 355.319 236.711, 358.594 246.322 C 360.324 251.398, 360.632 251.581, 364.493 249.821 C 366.672 248.828, 366.981 248.191, 366.452 245.781 C 366.044 243.924, 366.384 242.062, 367.421 240.480 C 369.298 237.616, 374.901 234.462, 375.975 235.665 C 377.645 237.537, 388 267.057, 388 269.947 C 388 273.911, 385.871 278.970, 383.203 281.346 C 381.471 282.889, 381.310 283.587, 382.226 285.596 C 383.621 288.658, 384.172 288.620, 390.445 285.032 C 403.535 277.542, 403.593 272.780, 390.910 246.941 C 386.531 238.019, 383.072 230.614, 383.224 230.486 C 383.376 230.359, 387.550 227.970, 392.500 225.178 C 400.346 220.754, 401.592 220.321, 402.214 221.802 C 402.606 222.736, 405.252 229.468, 408.094 236.762 C 410.935 244.056, 414.664 252.381, 416.380 255.262 C 421.912 264.550, 428.813 265.970, 438.078 259.727 C 442.611 256.671, 443.812 253.168, 441.522 249.674 L 439.777 247.010 436.812 249.505 C 430.446 254.862, 427.262 252.125, 417.587 232.977 C 413.414 224.720, 410.008 217.409, 410.017 216.732 C 410.026 216.054, 413.202 213.790, 417.075 211.700 L 424.116 207.899 420.411 201.200 C 418.373 197.515, 416.639 194.404, 416.556 194.286 C 416.473 194.169, 405.627 199.952, 392.453 207.137 M 105 247.948 L 105 278 110.464 278 L 115.928 278 116.214 268.320 L 116.500 258.639 124.282 268.320 L 132.064 278 138.706 278 L 145.349 278 143.356 275.750 C 125.170 255.217, 125.697 255.962, 127.731 253.648 C 128.769 252.467, 132.451 248.350, 135.913 244.500 L 142.208 237.500 136.354 237.179 L 130.500 236.859 123.295 244.679 L 116.090 252.500 115.795 235.500 L 115.500 218.500 110.250 218.198 L 105 217.895 105 247.948 M 154.228 219.208 C 151.598 220.501, 150.256 224.589, 151.701 226.905 C 154.163 230.851, 160.911 231.310, 163.214 227.687 C 166.558 222.428, 160.091 216.326, 154.228 219.208 M 281.104 219.265 C 274.080 222.887, 279.018 232.845, 286.439 230.023 C 288.820 229.118, 291 226.248, 291 224.020 C 291 222.476, 286.372 217.997, 284.795 218.015 C 284.083 218.023, 282.422 218.585, 281.104 219.265 M 66.500 220.222 C 59.091 222.848, 55 228.374, 55 235.753 C 55 243.546, 61.498 249.070, 76.839 254.318 C 81.034 255.754, 82.430 256.792, 83.462 259.248 C 85.991 265.262, 82.119 270, 74.675 270 C 70.509 270, 67.150 267.604, 65.381 263.369 C 64.042 260.166, 63.721 260, 58.855 260 L 53.737 260 54.295 264.163 C 55.367 272.153, 62.533 277.789, 72.793 278.710 C 87.128 279.997, 97.324 271.315, 95.530 259.349 C 94.427 251.994, 89.325 247.839, 76.062 243.495 C 66.487 240.359, 63.173 234.369, 68.635 230.073 C 72.293 227.195, 77.452 227.361, 80.545 230.455 C 81.895 231.805, 83 233.605, 83 234.455 C 83 235.666, 84.219 236, 88.631 236 L 94.262 236 93.707 232.581 C 92.871 227.429, 90.376 224.366, 84.720 221.548 C 79.197 218.795, 72 218.272, 66.500 220.222 M 228 248.928 L 228 278 233.500 278 L 239 278 239 267 L 239 256 243.750 255.994 C 251.247 255.985, 260.261 254.194, 262.995 252.171 C 264.373 251.151, 266.551 248.782, 267.837 246.908 C 269.824 244.009, 270.120 242.527, 269.817 236.978 C 269.397 229.294, 267.018 225.230, 261.270 222.373 C 258.214 220.855, 254.706 220.439, 242.750 220.178 L 228 219.856 228 248.928 M 239 238.106 L 239 247.212 246.979 246.849 C 256.786 246.404, 259.273 244.594, 259.273 237.902 C 259.273 234.506, 258.722 233.157, 256.581 231.316 C 254.288 229.343, 252.785 229, 246.444 229 L 239 229 239 238.106 M 191.500 237.386 C 189.849 238.105, 187.882 239.437, 187.127 240.347 C 185.168 242.707, 184 242.391, 184 239.500 C 184 237.167, 183.667 237, 179 237 L 174 237 174 266.500 L 174 296 179.500 296 L 185 296 185 284.326 L 185 272.651 187.250 274.759 C 197.149 284.032, 214.589 277.219, 218.067 262.721 C 222.003 246.313, 206.010 231.062, 191.500 237.386 M 311.491 237.865 C 295.695 245.041, 294.888 268.782, 310.182 276.403 C 320.764 281.676, 332.543 278.496, 337.930 268.911 L 340.128 265 334.958 265 C 330.903 265, 329.148 265.539, 326.818 267.500 C 322.513 271.122, 316.794 270.948, 312.923 267.077 C 311.315 265.469, 310 263.219, 310 262.077 C 310 260.064, 310.475 260, 325.500 260 L 341 260 340.994 256.750 C 340.974 244.692, 332.414 236.044, 320.500 236.044 C 317.750 236.044, 313.696 236.863, 311.491 237.865 M 152 257.500 L 152 278 157.500 278 L 163 278 163 257.500 L 163 237 157.500 237 L 152 237 152 257.500 M 279 257.500 L 279 278 284 278 L 289 278 289 257.500 L 289 237 284 237 L 279 237 279 257.500 M 191.378 246.389 C 186.842 248.433, 185 251.641, 185 257.500 C 185 263.497, 186.883 266.635, 191.683 268.641 C 196.286 270.564, 201.129 269.519, 204.652 265.841 C 207.066 263.322, 207.500 262.044, 207.500 257.454 C 207.500 252.751, 207.099 251.637, 204.450 248.989 C 200.843 245.382, 195.828 244.385, 191.378 246.389 M 312.923 247.923 C 311.315 249.531, 310 251.331, 310 251.923 C 310 252.621, 313.524 253, 320 253 C 331.100 253, 332.248 252.157, 327.545 247.455 C 323.846 243.755, 316.868 243.979, 312.923 247.923" stroke="none" fill="#fbfbfb" fill-rule="evenodd"/></svg>